<svg width="240" height="240" viewBox="0 0 240 240" fill="none" xmlns="http://www.w3.org/2000/svg">
<path d="M125.744 2.45675L152.509 29.2215C153.383 30.1095 153.873 31.3057 153.873 32.5519C153.873 33.7981 153.383 34.9943 152.509 35.8824L123.08 65.3114C122.192 66.1856 120.995 66.6756 119.749 66.6756C118.503 66.6756 117.307 66.1856 116.419 65.3114L87.2318 36.0035C86.3576 35.1154 85.8676 33.9192 85.8676 32.673C85.8676 31.4268 86.3576 30.2306 87.2318 29.3426L114.118 2.45675C114.874 1.68038 115.778 1.06333 116.776 0.641998C117.774 0.220667 118.847 0.00359661 119.931 0.00359661C121.014 0.00359661 122.087 0.220667 123.086 0.641998C124.084 1.06333 124.988 1.68038 125.744 2.45675Z" fill="#12B29F"/>
<path d="M78.9965 43.6332L108.91 73.5467C109.313 73.9414 109.633 74.4124 109.851 74.9323C110.07 75.4522 110.182 76.0105 110.182 76.5744C110.182 77.1383 110.07 77.6966 109.851 78.2165C109.633 78.7363 109.313 79.2074 108.91 79.6021L35.6401 152.872C35.2455 153.275 34.7744 153.595 34.2545 153.813C33.7346 154.032 33.1764 154.144 32.6125 154.144C32.0485 154.144 31.4903 154.032 30.9704 153.813C30.4505 153.595 29.9794 153.275 29.5848 152.872L2.45675 125.744C1.68038 124.988 1.06333 124.084 0.641998 123.086C0.220667 122.087 0.00359661 121.014 0.00359661 119.931C0.00359661 118.847 0.220667 117.774 0.641998 116.776C1.06333 115.778 1.68038 114.874 2.45675 114.118L72.9412 43.6332C73.3358 43.2304 73.8069 42.9104 74.3268 42.692C74.8467 42.4735 75.4049 42.361 75.9689 42.361C76.5328 42.361 77.091 42.4735 77.6109 42.692C78.1308 42.9104 78.6019 43.2304 78.9965 43.6332Z" fill="#1C3745"/>
<path d="M166.799 43.5121L196.834 73.5467C197.237 73.9414 197.557 74.4124 197.775 74.9323C197.994 75.4522 198.106 76.0105 198.106 76.5744C198.106 77.1383 197.994 77.6966 197.775 78.2164C197.557 78.7363 197.237 79.2074 196.834 79.6021L166.799 109.637C166.405 110.039 165.934 110.359 165.414 110.578C164.894 110.796 164.336 110.909 163.772 110.909C163.208 110.909 162.649 110.796 162.13 110.578C161.61 110.359 161.139 110.039 160.744 109.637L130.709 79.6021C130.307 79.2074 129.987 78.7363 129.768 78.2164C129.55 77.6966 129.437 77.1383 129.437 76.5744C129.437 76.0105 129.55 75.4522 129.768 74.9323C129.987 74.4124 130.307 73.9414 130.709 73.5467L160.744 43.5121C161.139 43.1093 161.61 42.7893 162.13 42.5708C162.649 42.3524 163.208 42.2399 163.772 42.2399C164.336 42.2399 164.894 42.3524 165.414 42.5708C165.934 42.7893 166.405 43.1093 166.799 43.5121Z" fill="#1C3745"/>
<path d="M122.837 87.474L152.872 117.509C153.275 117.903 153.595 118.374 153.813 118.894C154.032 119.414 154.144 119.972 154.144 120.536C154.144 121.1 154.032 121.659 153.813 122.178C153.595 122.698 153.275 123.169 152.872 123.564L123.685 152.751C123.29 153.154 122.819 153.474 122.3 153.692C121.78 153.911 121.221 154.023 120.657 154.023C120.094 154.023 119.535 153.911 119.015 153.692C118.495 153.474 118.024 153.154 117.63 152.751L87.5952 122.716C87.1924 122.322 86.8724 121.851 86.6539 121.331C86.4354 120.811 86.3229 120.253 86.3229 119.689C86.3229 119.125 86.4354 118.566 86.6539 118.047C86.8724 117.527 87.1924 117.056 87.5952 116.661L116.782 87.474C117.607 86.714 118.688 86.2921 119.81 86.2921C120.932 86.2921 122.012 86.714 122.837 87.474Z" fill="#12B29F"/>
<path d="M79.6021 130.709L109.637 160.744C110.039 161.139 110.359 161.61 110.578 162.13C110.796 162.649 110.909 163.208 110.909 163.772C110.909 164.336 110.796 164.894 110.578 165.414C110.359 165.934 110.039 166.405 109.637 166.799L79.481 196.955C79.0863 197.358 78.6152 197.678 78.0953 197.896C77.5755 198.115 77.0172 198.227 76.4533 198.227C75.8894 198.227 75.3311 198.115 74.8112 197.896C74.2913 197.678 73.8203 197.358 73.4256 196.955L43.391 166.92C42.9882 166.526 42.6682 166.055 42.4497 165.535C42.2313 165.015 42.1188 164.457 42.1188 163.893C42.1188 163.329 42.2313 162.771 42.4497 162.251C42.6682 161.731 42.9882 161.26 43.391 160.865L73.5467 130.709C73.9414 130.307 74.4124 129.987 74.9323 129.768C75.4522 129.55 76.0105 129.437 76.5744 129.437C77.1383 129.437 77.6966 129.55 78.2164 129.768C78.7363 129.987 79.2074 130.307 79.6021 130.709Z" fill="#1C3745"/>
<path d="M237.405 125.744L167.042 196.107C166.647 196.51 166.176 196.83 165.656 197.049C165.136 197.267 164.578 197.38 164.014 197.38C163.45 197.38 162.892 197.267 162.372 197.049C161.852 196.83 161.381 196.51 160.986 196.107L131.678 166.799C131.275 166.405 130.955 165.934 130.737 165.414C130.519 164.894 130.406 164.336 130.406 163.772C130.406 163.208 130.519 162.649 130.737 162.13C130.955 161.61 131.275 161.139 131.678 160.744L204.827 87.5952C205.222 87.1924 205.693 86.8724 206.213 86.6539C206.732 86.4354 207.291 86.3229 207.855 86.3229C208.419 86.3229 208.977 86.4354 209.497 86.6539C210.017 86.8724 210.488 87.1924 210.882 87.5952L237.405 114.118C238.181 114.874 238.798 115.778 239.22 116.776C239.641 117.774 239.858 118.847 239.858 119.931C239.858 121.014 239.641 122.087 239.22 123.086C238.798 124.084 238.181 124.988 237.405 125.744Z" fill="#1C3745"/>
<path d="M123.927 175.035L152.63 203.737C153.504 204.625 153.994 205.821 153.994 207.067C153.994 208.314 153.504 209.51 152.63 210.398L125.744 237.405C124.988 238.181 124.084 238.798 123.086 239.22C122.087 239.641 121.014 239.858 119.931 239.858C118.847 239.858 117.774 239.641 116.776 239.22C115.778 238.798 114.874 238.181 114.118 237.405L87.8374 211.125C86.9631 210.237 86.4732 209.04 86.4732 207.794C86.4732 206.548 86.9631 205.352 87.8374 204.464L117.266 175.035C118.155 174.16 119.351 173.67 120.597 173.67C121.843 173.67 123.039 174.16 123.927 175.035Z" fill="#12B29F"/>
</svg>
