<svg width="603" height="795" viewBox="0 0 603 795" fill="none" xmlns="http://www.w3.org/2000/svg">
    <path d="M195.927 728.5C32.3269 676.9 20.4269 574.667 34.9269 530C62.5266 547.2 81.4267 546.167 87.4268 543.5C84.6268 443.9 28.2604 403 0.427242 395C-7.57276 263.4 98.7606 228.833 152.927 228L174.427 97L212.927 119.5L267.427 37.5L284.927 87L287.427 0L361.927 83L390.927 45.5L422.427 132L487.427 103L454.927 216.5H487.427L480.927 228C600.527 252.4 610.094 349.5 599.927 395C553.927 404.2 538.427 497.833 536.427 543.5C555.627 549.5 576.427 537 584.427 530C604.427 563 593.427 709.5 463.927 728.5C360.327 743.7 311.761 779.167 300.427 795C300.427 795 261.427 751 195.927 728.5Z" fill="url(#paint0_linear_215_160)"/>
    <path d="M102.5 554C65.3 564.8 46.6667 558.5 42 554C29 629 155 710.5 215 723.5C252.343 731.591 290.667 746.5 304.5 758C312.5 750.5 345.7 733.1 414.5 723.5C566.5 709.1 585.833 604.833 576.5 554.5C566.9 561.3 537.5 557.333 524 554.5C521.2 449.3 565.833 396.333 588.5 383V349L578 340.5L581.5 328.5L567.5 301.5H556.5V289L534.5 266.5H522V257L487.5 239.5L461 243.5L465 231.5H434.5L465 129L413 150.5L407 121L385.5 71.5L355.5 110L352 93.5L302 37V93.5L277.5 110L272 103L261 71.5L228.5 121L221.5 144.5L190 121L166.5 237.5L168.5 246L141.5 255L133 243.5L113 239L80.5 255V268L71 265L46 289.5V300.5H35.5L19.5 329L25 340.5L14 347.5V383.5C85.2 416.3 102.667 510.833 102.5 554Z" fill="#151A1E"/>
    <path fill-rule="evenodd" clip-rule="evenodd" d="M109.025 262.118L96.275 269.212V276.489V283.765L89.212 282.215L82.149 280.665L72.712 290.063L63.275 299.46V306.23V313L57.025 313.001L50.775 313.002L44.965 323.751L39.155 334.5L41.215 339.519C42.348 342.28 43.275 345.073 43.275 345.727C43.275 346.381 41.297 348.075 38.88 349.491C34.022 352.338 34.148 351.995 32.166 367.801L31 377.101L40.888 387.293C46.326 392.898 63.936 410.905 80.021 427.307L109.267 457.13L119.284 460.503L129.301 463.876L171.771 427.922L214.24 391.968L211.035 385.468L207.83 378.968L211.077 349.469L214.323 319.97L193.15 295.735C181.505 282.406 171.144 270.613 170.126 269.528C168.299 267.581 168.198 267.634 161.876 273.9C157.456 278.281 155.059 279.991 154.126 279.429C153.383 278.981 146.156 273.301 138.067 266.807C129.977 260.313 123.002 255.005 122.567 255.012C122.131 255.018 116.038 258.216 109.025 262.118ZM468.275 266.145C448.406 282.352 451.281 281.44 443.71 273.936C437.352 267.634 437.251 267.581 435.424 269.528C434.406 270.613 424.045 282.406 412.4 295.735L391.227 319.97L394.473 349.469L397.72 378.968L394.515 385.468L391.31 391.968L433.779 427.922L476.249 463.876L486.236 460.513L496.223 457.15L524.999 427.817C540.826 411.685 558.449 393.675 564.163 387.796L574.55 377.106L573.384 367.803C571.448 352.362 571.571 352.698 566.703 349.618C564.268 348.077 562.275 346.304 562.275 345.678C562.275 345.051 563.202 342.28 564.335 339.519L566.395 334.5L560.585 323.751L554.775 313.002L548.525 313.001L542.275 313V306.23V299.46L532.838 290.063L523.401 280.665L516.338 282.215L509.275 283.765V276.483V269.202L496.457 262.101C489.407 258.195 483.22 255.03 482.707 255.067C482.194 255.104 475.7 260.089 468.275 266.145ZM287.275 468.938C227.202 514.827 203.683 533.339 203.448 534.921C203.268 536.13 204.285 541.179 205.708 546.142C213.718 574.063 234.824 602.275 264.775 625.093C280.327 636.941 304.035 651.034 320.369 658.14C325.773 660.491 330.095 662.513 329.974 662.634C329.853 662.755 326.11 662.222 321.656 661.449C289.32 655.837 254.744 632.427 221.063 593.341C211.066 581.74 199.621 566.665 192.343 555.511C189.476 551.117 187.007 547.399 186.856 547.248C186.177 546.568 178.636 550.451 172.567 554.606C147.005 572.106 112.935 581.278 80.066 579.508C73.076 579.131 66.019 579.117 64.385 579.476L61.413 580.129L72.902 594.814C94.105 621.916 113.629 642.373 133.69 658.509C161.777 681.1 193.631 697.077 222.627 703.118C230.802 704.821 237.546 705.324 257.32 705.705C284.262 706.223 292.557 705.368 308.411 700.439C362.602 683.588 411.924 625.765 447.066 537.887C453.74 521.196 463.275 493.325 463.275 490.504C463.275 489.046 373.81 405.599 371.954 405.327C371.306 405.232 333.2 433.857 287.275 468.938ZM186.775 442.128C164.775 460.804 145.694 476.897 144.373 477.891L141.971 479.697L144.691 490.662L147.411 501.627L160.784 513.564C168.464 520.419 175.012 525.5 176.167 525.5C177.272 525.5 200.25 509.075 227.228 489L276.279 452.5L275.801 449.008C275.537 447.087 274.916 445.38 274.419 445.215C273.922 445.049 268.201 436.608 261.707 426.457L249.899 408L238.337 408.086L226.775 408.172L186.775 442.128ZM463.312 549.718C460.277 557.163 448.319 581.192 442.52 591.5C423.145 625.941 395.751 658.949 372.091 676.363C366.417 680.539 360.979 684.649 360.007 685.496C359.034 686.343 355.321 688.475 351.757 690.233C348.192 691.991 345.276 693.67 345.277 693.965C345.278 694.259 347.19 695.694 349.527 697.153C352.832 699.218 355.994 700.06 363.775 700.951C380.045 702.814 415.422 703.425 429.864 702.093C472.977 698.116 507.503 683.615 529.275 660.34C546.668 641.748 558.172 614.736 558.593 591.5L558.775 581.5L554.775 582C552.575 582.275 545.375 582.467 538.775 582.426C514.313 582.276 494.225 573.111 474.754 553.218L465.669 543.936L463.312 549.718Z" fill="url(#paint1_linear_215_160)"/>
    <path fill-rule="evenodd" clip-rule="evenodd" d="M366.993 292.666C361.218 295.569 348.421 301.224 338.554 305.232C328.688 309.24 320.444 313.033 320.235 313.66C320.026 314.288 321.839 316.786 324.264 319.211C332.469 327.415 344.04 328.876 361.784 323.948C369.518 321.8 370.207 321.388 372.03 317.815C373.77 314.404 378.554 289.689 377.794 288.04C377.628 287.681 372.768 289.762 366.993 292.666ZM228 290.054C228.023 294.731 232.227 314.602 233.742 317.196C235.273 319.819 236.877 320.726 243.533 322.737C248.767 324.318 254.074 325.159 259.029 325.193C265.512 325.237 267.311 324.839 271.9 322.341C276.552 319.809 282.993 313.457 281.882 312.495C281.668 312.31 272.493 308.434 261.493 303.883C250.493 299.331 238.793 294.211 235.493 292.504C232.193 290.798 229.156 289.248 228.743 289.061C228.33 288.874 227.996 289.32 228 290.054Z" fill="white"/>
    <path fill-rule="evenodd" clip-rule="evenodd" d="M310.262 79.75L310.796 101.5L289.618 120.5C277.97 130.95 268.133 139.618 267.757 139.761C267.382 139.905 265.609 135.55 263.817 130.083C261.156 121.965 260.302 117.088 259.153 103.458C258.38 94.281 257.561 86.585 257.332 86.357C257.104 86.129 249.448 105.868 240.318 130.221C224.042 173.635 223.729 174.617 224.297 180.5L224.877 186.5L218.467 177.5C214.941 172.55 208.075 162.763 203.21 155.75C198.345 148.737 194.08 143 193.733 143C193.386 143 190.29 157.287 186.854 174.75C178.652 216.426 178.416 220.859 182.96 248L186.392 268.5L197.267 279.086C203.248 284.908 210.087 291.438 212.464 293.597L216.785 297.524L225.714 340.012C230.625 363.38 234.764 382.863 234.912 383.306C235.059 383.75 246.411 394.392 260.138 406.956L285.096 429.799L305.119 429.301C316.132 429.027 326.32 428.509 327.76 428.151C329.56 427.703 335.93 420.939 348.151 406.5C357.926 394.95 366.53 384.796 367.27 383.936C368.01 383.075 371.393 369.35 374.787 353.436L380.958 324.5L388.47 313.5C400.336 296.124 403.783 291.906 425.932 267.66C437.407 255.099 446.583 244.608 446.323 244.348C446.063 244.087 437.895 246.42 428.174 249.532C418.452 252.644 410.295 254.986 410.046 254.738C409.798 254.489 419.072 230.763 430.656 202.014C442.239 173.264 451.587 149.624 451.429 149.48C451.271 149.337 439.91 155.915 426.181 164.099C412.452 172.282 400.888 178.645 400.482 178.239C399.588 177.344 396.402 160.052 390.073 121.75C387.46 105.938 385.057 93.014 384.732 93.032C384.408 93.05 378.362 103.181 371.297 115.545L358.451 138.027L351.433 142.567C347.573 145.063 344.203 146.894 343.943 146.634C343.683 146.374 342.552 139.263 341.429 130.831L339.388 115.5L325.012 86.75C317.105 70.938 310.431 58 310.182 58C309.932 58 309.968 67.788 310.262 79.75ZM372.166 169.762C371.792 173.481 371.169 178.078 370.78 179.979L370.073 183.434L367.735 179.65C365.492 176.021 365.227 175.892 361.269 176.506C358.999 176.858 356.242 177.389 355.142 177.685C353.481 178.133 353.361 177.994 354.437 176.862C356.759 174.42 371.119 163.137 371.993 163.067C372.462 163.03 372.539 166.043 372.166 169.762ZM258.605 200.241C258.625 200.648 256.375 199.587 253.605 197.882L248.568 194.783L240.806 199.92L242.739 193.21C243.802 189.519 245.153 184.737 245.741 182.581L246.81 178.663L252.689 189.081C255.922 194.812 258.585 199.833 258.605 200.241ZM315.474 193.267C318.204 200.27 320.244 206 320.007 206C319.77 206 317.439 204.917 314.828 203.594L310.08 201.188L306.111 204.176C295.896 211.866 296.142 212.57 303.22 195.893C306.752 187.57 309.642 180.515 309.642 180.214C309.642 178.727 310.92 181.587 315.474 193.267ZM223.611 246.528C223.104 248.713 222.679 250.954 222.666 251.508C222.653 252.062 225.567 254.499 229.142 256.924C232.717 259.348 235.637 262.044 235.63 262.916C235.624 263.787 234.954 266.975 234.142 270C233.33 273.025 232.66 276.259 232.654 277.186C232.646 278.263 237.247 281.788 245.392 286.945C255.473 293.328 262.187 296.615 277.466 302.649C293.26 308.886 296.548 310.513 295.466 311.556C294.738 312.258 289.207 316.922 283.176 321.921C273.592 329.864 271.827 330.949 269.176 330.531C267.507 330.269 260.347 329.545 253.265 328.923C243.559 328.071 238.759 327.137 233.771 325.131L227.155 322.471L217.539 288.064L225.89 270.09L214.845 257.5L219.493 249.864C222.05 245.665 224.23 242.302 224.337 242.392C224.444 242.482 224.117 244.344 223.611 246.528ZM389.616 257.36C389.63 257.833 387.392 260.681 384.642 263.69C381.892 266.699 379.647 269.687 379.653 270.331C379.659 270.974 381.401 275.224 383.524 279.774L387.384 288.049L383.507 301.774C381.374 309.324 379.184 317.116 378.64 319.09C377.746 322.334 377 322.934 370.896 325.306C365.619 327.357 360.658 328.24 348.206 329.345L332.27 330.759L307.885 310.329L326.513 303.079C341.362 297.301 347.932 294.092 358.892 287.263C366.455 282.551 372.634 278.427 372.625 278.098C372.615 277.769 371.718 274.125 370.631 270L368.653 262.5L370.98 260.5C372.26 259.4 375.434 257.028 378.035 255.228C381.39 252.906 382.614 251.454 382.25 250.228C380.077 242.907 380.64 242.759 385.03 249.5C387.538 253.35 389.602 256.887 389.616 257.36Z" fill="url(#paint2_linear_215_160)"/>
    <path fill-rule="evenodd" clip-rule="evenodd" d="M311.484 64.5604C311.362 70.6478 326.56 109.646 330.813 114.159C333.784 117.311 334.972 121.458 337.065 135.956C340.844 162.149 340.342 161.579 350.868 151.63C355.722 147.042 359.693 142.339 359.693 141.179C359.693 138.305 359.034 138.464 351.694 143.094C348.186 145.308 344.796 146.533 344.16 145.819C343.526 145.104 342.252 138.126 341.33 130.314C339.753 116.945 338.826 114.466 325.61 88.2779C316.073 69.3758 311.54 61.7673 311.484 64.5604ZM383.012 97.4884C381.182 101.334 381.816 106.585 388.51 143.027C392.672 165.683 396.503 184.219 397.025 184.219C397.545 184.219 408.738 177.897 421.895 170.171C435.054 162.445 445.994 156.314 446.208 156.549C446.68 157.066 391.589 260.388 386.324 268.86L382.582 274.879L386.327 273.721C388.387 273.083 392.767 271.202 396.063 269.539C399.36 267.876 402.374 266.833 402.761 267.221C403.148 267.609 396.16 281.144 387.232 297.3L370.997 326.674L367.585 350.027C365.708 362.871 363.605 374.781 362.91 376.494C362.215 378.206 353.112 389.066 342.679 400.625C324.529 420.737 323.362 421.718 315.609 423.378C307.51 425.111 307.508 425.112 311.97 426.91C314.61 427.974 319.385 428.299 323.653 427.707C330.623 426.741 331.469 426.006 348.01 406.548C357.434 395.461 365.988 385.214 367.02 383.777C368.051 382.34 371.473 368.904 374.623 353.919C378.147 337.162 381.749 324.212 383.98 320.278C390.555 308.679 406.314 288.599 423.945 269.348C433.496 258.92 442.689 248.82 444.373 246.905C447.181 243.709 445.926 243.93 428.992 249.616C418.851 253.021 410.277 255.532 409.94 255.194C409.602 254.858 418.216 232.619 429.078 205.777C439.942 178.935 449.443 155.378 450.194 153.427C451.836 149.164 453.93 148.157 423.587 166.239C401.608 179.335 400.989 179.592 399.824 176.095C399.165 174.12 395.579 154.648 391.854 132.823C385.609 96.2335 384.92 93.4794 383.012 97.4884ZM255.639 111.061C253.81 121.721 253.839 121.896 260.14 139.381C265.178 153.357 266.342 158.501 265.799 164.403C265.424 168.49 265.394 171.555 265.732 171.218C267.148 169.802 275.76 137.183 274.934 136.357C274.439 135.862 272.641 136.714 270.94 138.254C268.449 140.505 267.692 140.63 267.053 138.892C261.995 125.157 259.993 116.995 259.993 110.115C259.993 98.175 257.767 98.6592 255.639 111.061ZM196.128 146.932C196.131 147.316 197.525 154.989 199.226 163.98L202.319 180.327L215.968 193.235C228.217 204.821 238.184 212.288 238.184 209.878C238.184 209.389 234.801 203.942 230.666 197.772C226.532 191.602 222.704 185.343 222.16 183.864C220.54 179.452 196.114 144.799 196.128 146.932ZM186.329 182.27C179.888 215.171 179.652 220.82 183.661 246.149L187.163 268.28L217.641 297.516L223.385 322.003L224.304 301.096L196.997 266.994L187.47 220.298L189.476 194.085C192.185 158.668 191.473 155.991 186.329 182.27Z" fill="url(#paint3_linear_215_160)"/>
    <path d="M489 258.5L481.5 255L450.5 279L453 290.5L489 258.5Z" fill="#68EFF6"/>
    <path d="M116 259.451L123.597 256L155 279.662L152.468 291L116 259.451Z" fill="#68EFF6"/>
    <path d="M359.5 422.5L369 433L243 522.5C248.83 544.805 262.735 586.268 280.143 611.54C286.612 618.946 292.682 625.094 297.5 629.5C291.462 625.858 285.629 619.503 280.143 611.54C260.431 588.972 237.012 554.725 234 522.5L359.5 422.5Z" fill="#67F0F6"/>
    <path fill-rule="evenodd" clip-rule="evenodd" d="M119.024 256.583L116.745 258.428L134.499 274.72C153.363 292.03 153.963 292.325 153.974 284.304C153.98 280.338 153.846 280.197 138.324 267.804C129.714 260.929 122.361 255.177 121.985 255.021C121.609 254.866 120.277 255.568 119.024 256.583ZM466.676 267.462L450.999 279.988L451.014 284.146C451.044 292.338 451.581 292.08 470.372 274.836C480.067 265.939 487.999 258.479 487.999 258.258C487.999 258.037 486.729 257.199 485.176 256.396C482.368 254.944 482.274 255 466.676 267.462ZM166.081 269.206C164.545 271.056 162.927 268.475 183.999 297.804C193.68 311.279 201.917 322.825 202.303 323.463C202.689 324.1 201.44 334.201 199.529 345.908C196.942 361.749 195.598 367.627 194.276 368.886C193.299 369.817 179.224 382.385 162.999 396.817C128.679 427.343 129.589 426.495 132.999 424.782C135.819 423.365 189.057 394.926 195.999 391.129C200.49 388.671 200.494 388.671 197.963 390.985C196.568 392.261 179.352 406.744 159.706 423.17C127.862 449.794 123.8 452.888 122.289 451.67C121.357 450.919 101.052 432.634 77.168 411.038C42.511 379.701 33.465 372.002 32.371 372.911C31.616 373.537 30.999 374.781 31 375.676C31.001 376.572 48.342 395.079 69.537 416.804L108.072 456.304L118.364 459.947L128.657 463.589L170.578 428.135C193.635 408.635 212.637 392.295 212.805 391.824C212.973 391.354 211.72 388.213 210.02 384.845L206.929 378.721L210.061 350.72C211.784 335.319 212.931 321.725 212.609 320.511C212.286 319.297 202.766 307.729 191.452 294.804C165.57 265.237 167.64 267.326 166.081 269.206ZM414.543 293.473C402.668 307.041 392.666 319.284 392.315 320.68C391.965 322.077 393.07 335.779 394.771 351.13L397.863 379.041L394.717 385.422C391.961 391.01 391.752 391.98 393.034 393.224C393.84 394.006 412.855 410.16 435.29 429.122L476.081 463.599L485.689 460.452L495.297 457.304L534.398 417.506C555.904 395.617 573.633 376.902 573.797 375.918C573.961 374.934 573.457 373.599 572.676 372.951C571.517 371.989 563.275 378.989 527.83 411.038C503.946 432.634 483.641 450.919 482.708 451.671C481.195 452.891 477.086 449.763 444.755 422.78C403.734 388.543 402.476 387.428 408.999 391.066C414.259 393.999 468.319 422.93 471.999 424.78C475.41 426.496 476.315 427.34 441.999 396.817C425.774 382.385 411.717 369.834 410.76 368.924C409.489 367.716 408.072 361.523 405.49 345.892C402.389 327.117 402.13 324.258 403.366 322.409C404.14 321.251 412.686 309.31 422.358 295.873C435.89 277.073 439.691 271.138 438.849 270.123C438.247 269.398 437.389 268.804 436.944 268.804C436.498 268.804 426.418 279.905 414.543 293.473ZM95.999 277.245C95.999 284.633 96.362 284.416 87.514 282.304C83.743 281.404 81.177 281.226 80.58 281.823C80.059 282.344 79.827 282.94 80.066 283.147C80.304 283.355 92.874 292.648 107.999 303.801C123.124 314.953 136.174 324.578 136.999 325.191C138.236 326.108 138.301 326.041 137.373 324.804C136.754 323.979 127.667 311.759 117.181 297.649C106.694 283.538 97.638 271.699 97.056 271.34C96.354 270.906 95.999 272.889 95.999 277.245ZM506.382 272.966C505.218 274.252 496.274 286.104 486.507 299.304C476.74 312.504 468.243 323.979 467.624 324.804C466.697 326.04 466.763 326.109 467.999 325.194C468.824 324.583 481.874 314.952 496.999 303.79C512.124 292.628 524.694 283.333 524.932 283.133C525.171 282.934 524.939 282.344 524.418 281.823C523.821 281.226 521.255 281.404 517.484 282.304C508.771 284.384 509.126 284.592 508.795 277.216L508.499 270.629L506.382 272.966ZM63.666 298.471C63.299 298.837 62.999 302.437 62.999 306.471V313.804H56.499C52.924 313.804 50.015 314.141 50.035 314.554C50.063 315.147 68.815 328.246 96.2 346.804C98.168 348.137 98.314 348.137 97.513 346.804C96.877 345.746 66.494 300.867 64.509 298.054C64.412 297.916 64.032 298.104 63.666 298.471ZM525.499 320.09C517.249 332.204 509.605 343.508 508.512 345.21L506.524 348.304L508.768 346.804C527.063 334.572 554.936 315.141 554.963 314.6C554.983 314.212 551.961 313.762 548.249 313.6L541.499 313.304L540.999 305.684L540.499 298.064L525.499 320.09ZM283.356 321.32L273.214 329.748L253.893 331.313C241.64 332.305 234.304 333.31 233.84 334.061C233.437 334.713 233.216 335.355 233.349 335.488C234.061 336.199 277.512 338.691 278.144 338.057C279.801 336.393 294.475 312.742 293.784 312.848C293.627 312.872 288.935 316.684 283.356 321.32ZM309.784 314.402C311.384 317.392 323.996 337.195 324.839 338.041C325.243 338.447 335.232 337.892 347.036 336.808C358.841 335.723 368.926 334.829 369.449 334.82C370.041 334.81 370.037 334.442 369.437 333.842C368.909 333.314 359.773 332.176 349.136 331.315L329.795 329.749L319.258 321.083C313.463 316.316 309.199 313.309 309.784 314.402ZM40.034 337.054C40.054 337.742 40.713 339.429 41.499 340.804C43.828 344.878 43.253 346.533 38.333 349.918L33.667 353.128L54.083 363.413C65.312 369.069 74.868 373.721 75.32 373.751C75.771 373.78 68.178 365.254 58.447 354.804C48.715 344.354 40.584 335.804 40.376 335.804C40.169 335.804 40.015 336.367 40.034 337.054ZM545.551 354.804C535.82 365.254 528.112 373.804 528.422 373.804C529.665 373.804 569.999 353.279 569.999 352.647C569.999 352.273 568.341 350.918 566.315 349.636C564.289 348.353 562.247 347.042 561.778 346.722C561.309 346.402 561.842 344.003 562.962 341.389C564.083 338.776 564.999 336.45 564.999 336.221C564.999 334.399 560.953 338.265 545.551 354.804ZM287.206 469.141L202.913 533.304L203.409 537.304C203.682 539.504 205.05 544.802 206.449 549.077C218.568 586.098 249.663 619.37 297.603 646.614C311.236 654.361 314.953 655.753 323.654 656.368L331.499 656.924L321.499 651.613C310.014 645.514 301.364 639.789 291.749 631.926C282.285 624.186 282.656 624.161 294.999 631.712C296.374 632.553 294.222 629.751 290.217 625.486C269.569 603.497 250.452 570.736 237.366 534.918C235.48 529.756 234.063 525.435 234.218 525.314C234.373 525.194 264.424 504.756 300.999 479.897C354.868 443.283 367.594 434.215 367.999 432.159C368.458 429.831 371.538 432.443 405.294 463.784C431.641 488.248 441.954 498.424 441.615 499.626C441.354 500.549 439.725 506.395 437.994 512.617C428.154 547.995 409.423 587.077 389.668 613.446C360.315 652.629 328.954 674.009 287.603 683.03C273.034 686.208 241.753 686.206 224.883 683.025C193.734 677.153 156.794 662.527 125.312 643.602C117.362 638.823 116.468 637.981 116.182 635.003C115.638 629.343 122.531 623.891 134.974 620.139C135.874 619.868 134.312 618.526 130.974 616.703C124.101 612.948 118.351 607.401 116.959 603.181C113.286 592.053 128.604 577.826 157.255 565.757C165.37 562.338 168.233 560.622 169.579 558.367L171.333 555.43L168.416 557.493C162.824 561.448 146.716 568.954 136.643 572.299C118.463 578.335 113.735 579.019 87.038 579.475C73.584 579.705 62.411 580.059 62.209 580.261C61.649 580.82 77.957 601.857 89.057 614.895C100.465 628.294 120.781 648.273 133.022 658.13C161.186 680.808 193.16 696.84 222.352 702.922C236.467 705.863 277.136 706.75 290.679 704.412C339.024 696.07 381.946 659.97 418.057 597.283C427.092 581.6 439.768 554.965 447.317 535.804C453.674 519.669 463.631 490.007 462.878 489.447C462.67 489.292 443.374 471.462 419.999 449.824C396.624 428.186 376.149 409.243 374.499 407.73L371.499 404.978L287.206 469.141ZM185.999 442.857C163.174 462.135 143.958 478.447 143.296 479.106C142.359 480.039 142.726 482.737 144.955 491.304L147.818 502.304L147.966 496.304C148.296 482.974 145.227 486.523 189.315 448.475L229.13 414.113L236.815 414.573C241.041 414.827 244.861 415.366 245.303 415.773C245.745 416.179 229.657 431.262 209.553 449.29C189.448 467.318 172.999 482.248 172.999 482.468C172.999 482.687 178.062 478.867 184.249 473.978C216.036 448.862 249.526 422.808 249.983 422.839C250.267 422.858 253.649 427.002 257.499 432.046C267.984 445.785 269.919 447.804 272.603 447.804C274.962 447.804 275.944 446.288 274.006 445.637C273.459 445.454 267.667 436.979 261.135 426.804L249.258 408.304L238.378 408.055L227.499 407.806L185.999 442.857ZM462.652 551.383L459.95 557.962L463.657 564.133C475.631 584.067 490.057 597.312 504.079 601.246C509.158 602.671 512.321 602.871 520.926 602.309C531.02 601.649 531.613 601.72 533.509 603.818C535.013 605.481 535.491 607.402 535.468 611.685C535.408 622.46 526.036 637.976 511.098 652.029C479.508 681.747 430.188 698.979 373.999 699.931C365.5 700.075 365.501 700.075 378.999 701.358C449.395 708.047 506.616 690.179 535.327 652.542C545.392 639.349 552.561 623.843 556.014 607.804C558.24 597.462 559.381 584.752 558.235 583.065C557.576 582.093 555.519 582.067 548.706 582.947C538.618 584.249 526.316 583.053 515.3 579.7C498.895 574.707 479.335 561.266 469.244 548.054C467.879 546.266 466.445 544.804 466.058 544.804C465.671 544.804 464.138 547.765 462.652 551.383ZM227.702 603.304C232.764 609.48 245.959 622.219 251.999 626.762C254.474 628.624 255.824 629.483 254.999 628.672C237.852 611.813 224.52 599.422 227.702 603.304ZM304.664 638.481C309.201 642.529 320.408 649.041 328.17 652.14C339.354 656.607 338.143 655.105 324.999 648.211C318.124 644.606 310.024 640.306 306.999 638.656L301.499 635.657L304.664 638.481Z" fill="#CCC7BE"/>
    <defs>
        <linearGradient id="paint0_linear_215_160" x1="301.486" y1="0" x2="301.486" y2="795" gradientUnits="userSpaceOnUse">
            <stop stop-color="#9D97F2"/>
            <stop offset="0.369792" stop-color="#77CAF1"/>
            <stop offset="0.729167" stop-color="#8CA4EC"/>
            <stop offset="1" stop-color="#67F1F7"/>
        </linearGradient>
        <linearGradient id="paint1_linear_215_160" x1="302.775" y1="255.012" x2="302.775" y2="705.837" gradientUnits="userSpaceOnUse">
            <stop stop-color="#F9F6F0"/>
            <stop offset="1" stop-color="#EFEFEF"/>
        </linearGradient>
        <linearGradient id="paint2_linear_215_160" x1="315.715" y1="58" x2="315.715" y2="429.799" gradientUnits="userSpaceOnUse">
            <stop stop-color="#F9F6F0"/>
            <stop offset="0.623127" stop-color="#F9F6F0"/>
            <stop offset="1" stop-color="#63737E"/>
        </linearGradient>
        <linearGradient id="paint3_linear_215_160" x1="316" y1="64" x2="316" y2="428" gradientUnits="userSpaceOnUse">
            <stop offset="0.364583" stop-color="#CCC7BE"/>
            <stop offset="1" stop-color="#727F89"/>
        </linearGradient>
    </defs>
</svg>
